<svg width="34" height="63" viewBox="0 0 34 63" fill="none" xmlns="http://www.w3.org/2000/svg">
<path d="M31.4485 57.1817C23.6909 55.7272 23.303 51.5575 23.303 51.3635C22.8182 45.5453 24.5636 26.6363 24.8545 25.3757C25.2424 23.9211 26.0182 20.915 23.5939 18.1029C22.7212 17.1332 23.4 12.7696 14.1879 0.357472C13.897 -0.0304072 13.3152 -0.127377 12.9273 0.163532L0.612122 8.50292C0.224243 8.79383 0.127273 9.27868 0.321213 9.66656C3.13333 15.8726 11.4727 23.5332 14.0909 25.7635C9.72727 31.2908 13.1212 40.7938 13.2182 41.1817C16.8061 49.6181 13.9939 55.1453 13.897 55.2423V55.3393C12.3455 59.315 14.6727 61.2544 17.7758 60.6726C22.2364 59.315 26.3091 62.0302 30.5758 62.0302C35.1333 62.0302 34.1636 57.6666 31.4485 57.1817ZM22.2364 19.3635C24.4667 21.8847 23.1091 24.6969 22.9151 25.7635C22.7212 27.315 22.3333 31.8726 21.9455 36.915H19.7151C20.103 35.2666 20.297 32.7453 20.297 31.0969C20.297 30.9999 20.297 30.9029 20.297 30.9029C21.6545 30.515 22.4303 29.3514 22.4303 27.9938C22.4303 26.6363 21.5576 25.2787 20.0061 24.9878C20.0061 24.8908 20.103 24.7938 20.103 24.6969C20.2 23.2423 19.0364 20.4302 18.4545 19.0726C19.6182 18.2969 20.5879 17.715 21.3636 17.2302C21.4606 18.006 21.5576 18.5878 22.2364 19.3635ZM19.4242 29.0605C18.4545 29.0605 18.3576 28.0908 18.3576 27.8969C18.3576 27.2181 18.7455 26.7332 19.4242 26.7332C20.4909 26.7332 20.4909 27.7029 20.4909 27.8969C20.4909 28.4787 20.103 29.0605 19.4242 29.0605ZM8.95152 18.2969C6.4303 15.5817 3.81212 12.4787 2.35758 9.66656L13.3152 2.1999C14.3818 3.65444 16.903 7.24232 18.9394 11.2181C17 11.9938 12.7333 14.0302 8.95152 18.2969ZM12.4424 21.7878C11.7636 21.109 11.0848 20.4302 10.3091 19.6544C13.897 15.5817 18.0667 13.6423 19.7151 12.9635C20.103 13.7393 20.3939 14.515 20.6848 15.2908C19.0364 16.1635 14.9636 18.5878 12.4424 21.7878ZM16.0303 26.3453C16.2242 26.1514 16.3212 25.8605 16.3212 25.6666C16.3212 25.3757 16.2242 25.1817 16.0303 24.9878C16.0303 24.9878 15.1576 24.212 13.897 23.0484C14.7697 21.9817 15.8364 20.915 16.903 20.0423C17.5818 21.6908 18.2606 23.6302 18.2606 24.406C18.2606 24.5999 18.3576 24.7938 18.4545 24.9878C17.1939 25.4726 16.6121 26.6363 16.6121 27.7999C16.6121 29.0605 17.2909 30.3211 18.6485 30.709C18.6485 30.806 18.6485 30.806 18.6485 30.9029C18.5515 33.2302 18.2606 35.9453 17.9697 36.8181H14.0909C13.5091 33.6181 13.3152 29.0605 16.0303 26.3453ZM14.4788 38.7575H21.8485C21.7515 39.5332 21.7515 40.309 21.6545 41.0847H15.1576C14.8667 40.309 14.6727 39.5332 14.4788 38.7575ZM31.8364 59.8969C31.8364 59.8969 31.4485 60.1878 30.5758 60.1878C27.1818 60.1878 24.9515 58.5393 20.4909 58.5393C18.1636 58.5393 17.5818 59.0241 16.8061 59.0241C15.3515 59.0241 14.7697 58.4423 15.5455 56.212C15.8364 55.5332 18.1636 50.5878 15.7394 43.0241H21.3636C21.1697 46.4181 21.0727 49.6181 21.2667 51.6544C21.2667 51.8484 21.5576 57.4726 30.9636 59.2181C31.3515 59.315 31.6424 59.6059 31.7394 59.8969C31.8364 59.8969 31.8364 59.8969 31.8364 59.8969Z" fill="#897AE3"/>
</svg>
