<svg width="65" height="64" viewBox="0 0 65 64" fill="none" xmlns="http://www.w3.org/2000/svg">
<path d="M61.5895 34.3358C62.0166 33.6586 62.2648 32.858 62.2648 32C62.2648 29.5782 60.2945 27.6078 57.8726 27.6078H50.9707V20.4373L59.1684 15.7312C61.2422 14.5383 62.009 11.861 60.7897 9.73616C59.585 7.63558 56.8952 6.90698 54.7932 8.11269L45.3537 13.5325C43.4001 14.6541 42.1864 16.7507 42.1864 19.0036V23.8431H39.2574V20.4963C39.2574 16.5779 37.1168 13.2173 34.0053 11.427C35.0609 10.2144 35.7023 8.63222 35.7023 6.90196C35.7023 3.09622 32.6061 0 28.8003 0C24.9946 0 21.8984 3.09622 21.8984 6.90196C21.8984 8.63071 22.5387 10.2118 23.5926 11.4239C20.3865 13.2599 18.3432 16.6894 18.3432 20.4963V23.9694C16.8132 24.2811 15.4842 25.1514 14.5785 26.3572C13.4328 24.8318 11.6093 23.8431 9.55891 23.8431C6.09915 23.8431 3.2844 26.6579 3.2844 30.1176C3.2844 31.6165 3.81334 32.9939 4.69353 34.0742C2.43722 34.6957 0.774597 36.7646 0.774597 39.2157V42.3529C0.774597 45.1884 2.99891 47.5132 5.79421 47.6762V59.6078C5.79421 62.0297 7.76453 64 10.1864 64C12.6082 64 14.5785 62.0297 14.5785 59.6078V47.6863H50.9707V59.6078C50.9707 62.0297 52.941 64 55.3628 64C57.7847 64 59.755 62.0297 59.755 59.6078V47.6762C62.5503 47.5132 64.7746 45.1883 64.7746 42.3529V39.2157C64.7746 37.0389 63.4632 35.1639 61.5895 34.3358ZM59.755 32C59.755 33.0379 58.9106 33.8824 57.8726 33.8824H48.8171C49.7884 32.8479 50.4864 31.5548 50.794 30.1176H57.8726C58.9106 30.1176 59.755 30.9621 59.755 32ZM28.8003 2.5098C31.2222 2.5098 33.1925 4.48013 33.1925 6.90196C33.1925 9.3238 31.2222 11.2941 28.8003 11.2941C26.3785 11.2941 24.4082 9.3238 24.4082 6.90196C24.4082 4.48013 26.3785 2.5098 28.8003 2.5098ZM20.853 20.4963C20.853 17.2322 22.8296 14.3339 25.8214 13.1272C27.6855 14.0227 29.8853 14.037 31.7791 13.1272C34.6602 14.2937 36.7476 17.1249 36.7476 20.4963V23.8431H32.3492C32.4885 23.4504 32.565 23.0282 32.565 22.5882C32.565 20.5124 30.8762 18.8235 28.8003 18.8235H27.5454V17.5686C27.5454 16.8757 26.9835 16.3137 26.2905 16.3137C25.5976 16.3137 25.0356 16.8757 25.0356 17.5686V20.0784C25.0356 20.7714 25.5976 21.3333 26.2905 21.3333H28.8003C29.4923 21.3333 30.0552 21.8963 30.0552 22.5882C30.0552 23.2802 29.4923 23.8431 28.8003 23.8431H20.853V20.4963ZM19.5981 26.3529C20.4909 26.3529 41.6772 26.3529 43.4413 26.3529C44.1342 26.3529 44.6962 25.791 44.6962 25.098V19.0037C44.6962 17.6471 45.427 16.3846 46.6035 15.7091L56.0424 10.2896C56.9455 9.77155 58.0953 10.0825 58.6125 10.985C59.1308 11.8881 58.8151 13.0392 57.9179 13.5551L49.091 18.6224C48.7012 18.8461 48.4609 19.2614 48.4609 19.7107V28.4549C48.4609 31.4476 46.0261 33.8824 43.0334 33.8824C41.667 33.8824 20.9707 33.8824 19.5981 33.8824C17.5223 33.8824 15.8334 32.1935 15.8334 30.1176C15.8334 28.0418 17.5223 26.3529 19.5981 26.3529ZM9.55891 26.3529C11.6348 26.3529 13.3236 28.0418 13.3236 30.1176C13.3236 32.1935 11.6348 33.8824 9.55891 33.8824C7.48305 33.8824 5.79421 32.1935 5.79421 30.1176C5.79421 28.0418 7.48305 26.3529 9.55891 26.3529ZM12.0687 59.6078C12.0687 60.6458 11.2243 61.4902 10.1864 61.4902C9.14843 61.4902 8.30401 60.6458 8.30401 59.6078V47.6863H12.0687V59.6078ZM57.2452 59.6078C57.2452 60.6458 56.4008 61.4902 55.3628 61.4902C54.3249 61.4902 53.4805 60.6458 53.4805 59.6078V47.6863H57.2452V59.6078ZM62.2648 42.3529C62.2648 43.9098 60.9981 45.1765 59.4413 45.1765C57.8055 45.1765 8.45661 45.1765 6.10793 45.1765C4.5511 45.1765 3.2844 43.9098 3.2844 42.3529V39.2157C3.2844 37.6589 4.5511 36.3922 6.10793 36.3922C8.39261 36.3922 56.8259 36.3922 59.4413 36.3922C60.9981 36.3922 62.2648 37.6589 62.2648 39.2157V42.3529Z" fill="#897AE3"/>
</svg>
