<svg width="48" height="54" viewBox="0 0 48 54" fill="none" xmlns="http://www.w3.org/2000/svg">
<path d="M47.4235 44.3484L45.5655 35.1695C45.5655 35.1683 45.5649 35.1676 45.5649 35.1663L43.7076 25.9907C43.3153 24.0508 42.2183 22.374 40.6177 21.2297C41.1399 20.4713 41.4471 19.5535 41.4471 18.5647C41.4471 16.2505 39.7691 14.3247 37.5668 13.9286L33.3761 6.67097C33.7025 5.77177 33.7499 4.79705 33.4971 3.85369C33.1713 2.63769 32.3905 1.62073 31.3006 0.991614C30.2107 0.361853 28.9403 0.194813 27.7236 0.521213C26.7067 0.793853 25.8337 1.38649 25.2052 2.20953H17.1054C15.6891 0.359293 13.0811 -0.204547 11.01 0.991614C9.92011 1.62073 9.13995 2.63769 8.81419 3.85369C8.56139 4.79705 8.60811 5.77113 8.93451 6.67033L4.74443 13.9292C2.54219 14.3247 0.864746 16.2505 0.864746 18.5647C0.864746 20.7113 2.30859 22.5231 4.27467 23.0908L8.79563 30.9212C8.30411 32.9078 9.15147 35.0646 11.0107 36.1379C11.7511 36.5654 12.5607 36.7683 13.3595 36.7683C14.4782 36.7683 15.5719 36.3619 16.4327 35.6233H18.3259V43.3948H14.7649C14.1991 43.3948 13.7403 43.8537 13.7403 44.4195V48.0316C13.7403 48.5974 14.1991 49.0563 14.7649 49.0563H18.3259V52.6172C18.3259 53.183 18.7847 53.6412 19.3505 53.6412H22.9627C23.5284 53.6412 23.9873 53.1823 23.9873 52.6172V49.0563H27.5483C28.114 49.0563 28.5723 48.5974 28.5723 48.0316V44.4195C28.5723 43.8537 28.1134 43.3948 27.5483 43.3948H23.9873V35.6233H25.8695C26.4001 36.0815 27.0279 36.422 27.7255 36.6089C28.1319 36.7171 28.5441 36.7715 28.9531 36.7715C29.3236 36.7715 29.6903 36.7215 30.05 36.6339L30.3758 38.2415C30.3758 38.2422 30.3758 38.2428 30.3758 38.2435L32.2337 47.4223C32.9774 51.0966 36.2171 53.6406 39.826 53.6406C40.3329 53.6406 40.8475 53.5907 41.3627 53.4863C45.5527 52.6377 48.2721 48.5385 47.4235 44.3484ZM34.2414 47.0166L32.587 38.8412L43.7601 36.5801L45.4151 44.7548C46.0391 47.8377 44.0391 50.854 40.9563 51.478C37.8817 52.0995 34.866 50.1001 34.2414 47.0166ZM22.962 33.574C22.3963 33.574 21.9374 34.0329 21.9374 34.5987V44.4195C21.9374 44.9852 22.3963 45.4441 22.962 45.4441H26.523V47.007H22.962C22.3963 47.007 21.9374 47.4659 21.9374 48.0316V51.5926H20.3745V48.0316C20.3745 47.4659 19.9156 47.007 19.3499 47.007H15.7889V45.4441H19.3499C19.9156 45.4441 20.3745 44.9852 20.3745 44.4195V34.5987C20.3745 34.0329 19.9156 33.574 19.3499 33.574H17.8286C18.0027 33.0627 18.0801 32.5347 18.0743 32.0118H24.2369C24.2311 32.5353 24.3086 33.0633 24.4827 33.574H22.962ZM4.69579 16.0617C4.97291 15.9631 5.26731 15.8998 5.57771 15.8998C5.70571 15.8998 5.82731 15.9196 5.95083 15.9375C6.49419 16.0143 6.98251 16.2518 7.36907 16.6051C7.64683 16.8598 7.87595 17.1657 8.02635 17.5164C8.16459 17.8383 8.24267 18.1923 8.24267 18.5641C8.24267 19.0831 8.08715 19.5644 7.82923 19.974C7.63723 20.2793 7.38955 20.5449 7.09387 20.7497C6.66315 21.0499 6.14155 21.2278 5.57835 21.2278C5.57387 21.2278 5.57003 21.2265 5.56555 21.2265C5.03755 21.2239 4.54731 21.0646 4.13387 20.7958C3.40171 20.3203 2.91403 19.4991 2.91403 18.5635C2.91403 17.4063 3.66155 16.4278 4.69579 16.0617ZM24.3073 4.25945C24.2164 4.78041 24.2107 5.30841 24.2939 5.82169H18.018C18.1012 5.30841 18.0955 4.78041 18.0046 4.25945H24.3073ZM29.6494 23.2406C28.827 24.4911 28.395 25.9177 28.3687 27.3756C27.7486 27.4518 27.1451 27.6515 26.5876 27.9734C25.7524 28.4553 25.122 29.1567 24.7239 29.9619H17.5873C17.1892 29.1561 16.5588 28.4553 15.7236 27.9734C14.9511 27.5273 14.1031 27.3308 13.2699 27.3487L9.60523 21.0012C10.0379 20.2889 10.2919 19.4569 10.2919 18.5641C10.2919 17.8185 10.1134 17.1151 9.80363 16.4879L13.6846 9.76601C14.3822 9.71993 15.0798 9.52793 15.7243 9.15545C16.3047 8.82009 16.7847 8.37849 17.1585 7.87033H25.154C25.5278 8.37849 26.0078 8.82073 26.5883 9.15545C27.2334 9.52793 27.9303 9.71993 28.6279 9.76601L32.5089 16.4879C32.1998 17.1158 32.0206 17.8185 32.0206 18.5641C32.0206 19.3161 32.2023 20.0259 32.5172 20.6569C31.3697 21.2553 30.3841 22.1327 29.6494 23.2406ZM39.3979 18.5647C39.3979 19.2092 39.1591 19.7923 38.7771 20.2531C38.6983 20.2243 38.6196 20.1955 38.5403 20.1692C38.203 20.0572 37.8599 19.9651 37.5118 19.9011C36.9415 19.7967 36.3585 19.7622 35.7729 19.7891C35.7204 19.7916 35.6679 19.7942 35.6155 19.7974C35.3435 19.8153 35.0715 19.8467 34.7995 19.894C34.7233 19.9068 34.6465 19.9132 34.5703 19.9286C34.546 19.9337 34.523 19.9414 34.4987 19.9471C34.4897 19.9491 34.4807 19.9516 34.4711 19.9535C34.3777 19.8025 34.3009 19.6412 34.2395 19.4716C34.1358 19.1868 34.0699 18.8841 34.0699 18.5641C34.0699 18.1923 34.1479 17.8383 34.2855 17.5164C34.4359 17.1657 34.6651 16.8591 34.9428 16.6051C35.3294 16.2511 35.8177 16.0143 36.3611 15.9375C36.4839 15.9203 36.6062 15.8998 36.7342 15.8998C37.0446 15.8998 37.3383 15.9631 37.6161 16.0617C38.6497 16.4278 39.3979 17.4063 39.3979 18.5647ZM33.9022 14.8047L30.7854 9.40697C31.2641 9.20409 31.7083 8.91865 32.1019 8.56281L35.2871 14.0803C34.7828 14.2428 34.3169 14.4918 33.9022 14.8047ZM28.2548 2.50073C28.4846 2.43929 28.7175 2.40857 28.9492 2.40857C29.4107 2.40857 29.8663 2.52953 30.2766 2.76633C30.8929 3.12217 31.3339 3.69625 31.5175 4.38425C31.6231 4.77593 31.6276 5.17657 31.554 5.56313C31.499 5.85561 31.4043 6.14105 31.2513 6.40537C31.1873 6.51609 31.1092 6.61145 31.0324 6.70937C30.6939 7.14137 30.2452 7.44601 29.7454 7.60409C29.3863 7.71801 29.0068 7.76217 28.6273 7.71737C28.2798 7.67641 27.9342 7.56697 27.6123 7.38073C27.4254 7.27321 27.2628 7.14137 27.1131 6.99865C27.0625 6.95065 27.019 6.89817 26.9723 6.84633C26.7035 6.54745 26.5051 6.19929 26.3937 5.82169C26.2465 5.31929 26.2439 4.77593 26.4097 4.25945C26.4667 4.08281 26.5403 3.90937 26.6369 3.74169C26.7457 3.55353 26.8807 3.38777 27.0279 3.23417C27.3607 2.88665 27.7774 2.62873 28.2548 2.50073ZM15.6743 3.74169C15.771 3.90873 15.8446 4.08217 15.9015 4.25945C16.0679 4.77593 16.0654 5.31929 15.9175 5.82169C15.8068 6.19929 15.6084 6.54745 15.3396 6.84633C15.1566 7.05049 14.9492 7.23737 14.6996 7.38073C14.3777 7.56697 14.0327 7.67641 13.6846 7.71737C13.3057 7.76217 12.9262 7.71737 12.5671 7.60345C12.0673 7.44601 11.618 7.14073 11.2795 6.70937C11.2033 6.61145 11.1239 6.51609 11.0606 6.40537C10.9076 6.14041 10.8129 5.85497 10.7579 5.56313C10.6849 5.17593 10.6894 4.77593 10.7943 4.38361C10.9787 3.69625 11.419 3.12153 12.0353 2.76569C13.1175 2.14105 14.4551 2.37081 15.2846 3.23353C15.4292 3.38649 15.5643 3.55161 15.6743 3.74169ZM10.2094 8.56217C10.603 8.91865 11.0471 9.20409 11.5259 9.40697L8.40907 14.8047C7.99435 14.4918 7.52907 14.2428 7.02347 14.0803L10.2094 8.56217ZM8.11979 22.5283L11.2052 27.8723C10.7419 28.111 10.3156 28.4284 9.94699 28.8175L6.67211 23.1452C7.19371 23.0204 7.68139 22.8105 8.11979 22.5283ZM12.0347 34.3625C11.2238 33.8947 10.7566 33.0614 10.7111 32.1897C10.6855 31.6969 10.7918 31.1926 11.0542 30.7343C11.0561 30.7305 11.0567 30.7267 11.0593 30.7228C11.3415 30.2351 11.7582 29.8742 12.2331 29.6515C12.5582 29.4985 12.9108 29.4121 13.2705 29.3987C13.3044 29.3974 13.3377 29.3923 13.3716 29.3923C13.8017 29.3923 14.2356 29.4998 14.6375 29.718C14.658 29.7295 14.6791 29.7372 14.6996 29.7487V29.7494C14.8078 29.8115 14.9012 29.8889 14.9966 29.9638C15.3531 30.2409 15.6251 30.5923 15.7979 30.9884C15.9393 31.3116 16.0142 31.6591 16.0206 32.0131C16.0289 32.4803 15.9246 32.9558 15.6743 33.3891C15.6353 33.4569 15.5841 33.5126 15.5399 33.5759C15.1873 34.0803 14.6913 34.4329 14.1339 34.6006C13.4535 34.8035 12.6964 34.7446 12.0347 34.3625ZM26.7707 33.574C26.7271 33.5113 26.6759 33.455 26.6369 33.3871C26.3867 32.9539 26.2823 32.4783 26.2907 32.0111C26.2971 31.6572 26.3719 31.3097 26.5134 30.9865C26.6868 30.5903 26.9582 30.2396 27.3147 29.9619C27.4107 29.887 27.5035 29.8095 27.6116 29.7475C27.6321 29.7359 27.6532 29.727 27.6737 29.7161C27.9617 29.5593 28.2702 29.4556 28.587 29.4127L28.7022 29.983L29.0094 31.4998L29.4196 33.5254L29.6244 34.5379L29.6404 34.6159C29.1911 34.7388 28.7169 34.7516 28.2542 34.6281C28.2267 34.6204 28.2017 34.6063 28.1742 34.598C27.5982 34.4246 27.1131 34.0655 26.7707 33.574ZM31.6411 34.1692L31.4107 33.03L31.3345 32.6518L31.0273 31.1343L30.8366 30.1929L30.5588 28.8214L30.5403 28.7311L30.5262 28.6595C30.4539 28.3011 30.418 27.9414 30.4142 27.583C30.4116 27.3827 30.418 27.1823 30.4366 26.9833C30.5236 26.0611 30.8359 25.167 31.3601 24.3708C31.7524 23.7801 32.2439 23.2809 32.8052 22.8815C33.1329 22.6486 33.483 22.4483 33.8555 22.2889C34.0513 22.2051 34.2516 22.1315 34.4577 22.0694C34.6279 22.0182 34.8007 21.9734 34.9774 21.9375C35.0446 21.9241 35.1124 21.9183 35.1796 21.9068C35.5867 21.8396 35.9937 21.8166 36.3963 21.8358C36.7649 21.8537 37.1297 21.9075 37.4868 21.9958C37.6007 22.0246 37.7147 22.0534 37.8267 22.0886C38.0462 22.1583 38.2606 22.2441 38.4711 22.3407C38.674 22.4335 38.8718 22.5385 39.0651 22.6563C39.131 22.6966 39.1995 22.7318 39.2641 22.7747C40.5326 23.6169 41.3979 24.9027 41.7006 26.3964L43.3556 34.5711L32.1819 36.8329L31.9489 35.6822L31.7089 34.4963L31.6411 34.1692ZM32.0481 29.3654C31.8158 29.222 31.6391 28.9878 31.5809 28.6985C31.5483 28.5379 31.5259 28.3311 31.5131 28.1039C31.4964 27.8095 31.5041 27.4723 31.5483 27.1068C31.6379 26.3695 31.8785 25.5375 32.4091 24.7939C32.7022 24.3823 33.0612 24.0451 33.4702 23.7782C33.9822 23.4441 34.5742 23.2233 35.2353 23.1356C35.371 23.1183 35.5041 23.1299 35.6302 23.1625C35.9937 23.2591 36.2836 23.5516 36.3668 23.9356C36.3726 23.9625 36.3822 23.9881 36.386 24.0156C36.4526 24.5161 36.1454 24.9782 35.6801 25.1254C35.6238 25.1433 35.5662 25.1587 35.5054 25.167C35.0734 25.2246 34.7227 25.3756 34.4347 25.6118C34.3035 25.7187 34.1819 25.8383 34.0782 25.9836C33.9207 26.2044 33.8081 26.4591 33.7243 26.7196C33.5361 27.3071 33.5156 27.9292 33.5892 28.2927C33.6244 28.4668 33.6091 28.6383 33.5598 28.7971C33.5131 28.9481 33.435 29.0876 33.3262 29.2015C33.2071 29.327 33.0542 29.4191 32.8801 29.4716C32.8494 29.4806 32.8199 29.4934 32.7879 29.5004C32.7195 29.5145 32.651 29.5209 32.5838 29.5209C32.3905 29.5203 32.2068 29.4633 32.0481 29.3654ZM40.6606 50.2902C40.5921 50.3036 40.5243 50.3107 40.4564 50.3107C39.979 50.3107 39.5515 49.9753 39.4529 49.4889C39.3409 48.9347 39.6993 48.3939 40.2542 48.2819C40.6331 48.2051 40.9953 48.0412 41.3147 47.8038C41.883 47.3814 42.3118 46.7183 42.4417 45.8556C42.507 45.4217 42.4974 44.9391 42.3905 44.4111C42.2779 43.8563 42.6363 43.3155 43.1918 43.2041C43.7486 43.0902 44.2868 43.4511 44.3988 44.0047C45.0119 47.0319 43.4043 49.7347 40.6606 50.2902Z" fill="#897AE3"/>
</svg>
