<svg width="65" height="64" viewBox="0 0 65 64" fill="none" xmlns="http://www.w3.org/2000/svg">
<path d="M46.9001 16H48.9V18C48.9 18.2652 49.0054 18.5196 49.1929 18.7071C49.3805 18.8946 49.6348 19 49.9 19H53.8999C54.1651 19 54.4195 18.8946 54.607 18.7071C54.7945 18.5196 54.8999 18.2652 54.8999 18V16H56.8999C57.1651 16 57.4195 15.8946 57.607 15.7071C57.7945 15.5196 57.8999 15.2652 57.8999 15V11C57.8999 10.7348 57.7945 10.4804 57.607 10.2929C57.4195 10.1054 57.1651 10 56.8999 10H54.8999V8C54.8999 7.73478 54.7945 7.48043 54.607 7.29289C54.4195 7.10536 54.1651 7 53.8999 7H49.9C49.6348 7 49.3805 7.10536 49.1929 7.29289C49.0054 7.48043 48.9 7.73478 48.9 8V10H46.9001C46.6349 10 46.3805 10.1054 46.193 10.2929C46.0055 10.4804 45.9001 10.7348 45.9001 11V15C45.9001 15.2652 46.0055 15.5196 46.193 15.7071C46.3805 15.8946 46.6349 16 46.9001 16ZM47.9 12H49.9C50.1652 12 50.4196 11.8946 50.6071 11.7071C50.7946 11.5195 50.9 11.2652 50.9 11V9H52.9V11C52.9 11.2652 53.0053 11.5196 53.1928 11.7071C53.3804 11.8946 53.6347 12 53.8999 12H55.8999V14H53.8999C53.6347 14 53.3804 14.1054 53.1928 14.2929C53.0053 14.4804 52.9 14.7348 52.9 15V17H50.9V15C50.9 14.7348 50.7946 14.4805 50.6071 14.2929C50.4196 14.1054 50.1652 14 49.9 14H47.9V12ZM21.9006 33C19.9228 33 17.9893 33.5864 16.3448 34.6852C14.7003 35.784 13.4186 37.3458 12.6617 39.173C11.9047 41.0003 11.7067 43.011 12.0925 44.9508C12.4784 46.8906 13.4307 48.6725 14.8293 50.071C16.2278 51.4695 18.0096 52.422 19.9494 52.8078C21.8892 53.1937 23.8999 52.9957 25.7272 52.2388C27.5545 51.4819 29.1163 50.2002 30.2151 48.5557C31.3139 46.9112 31.9004 44.9778 31.9004 43C31.8975 40.3488 30.843 37.8069 28.9683 35.9322C27.0936 34.0575 24.5518 33.003 21.9006 33ZM21.9006 51C20.3183 51 18.7716 50.5308 17.456 49.6518C16.1404 48.7728 15.115 47.5234 14.5095 46.0616C13.9039 44.5997 13.7455 42.9912 14.0542 41.4394C14.3628 39.8875 15.1247 38.462 16.2436 37.3432C17.3624 36.2244 18.7878 35.4624 20.3397 35.1537C21.8915 34.845 23.5001 35.0035 24.9619 35.609C26.4237 36.2144 27.6731 37.2398 28.5522 38.5554C29.4313 39.871 29.9005 41.4177 29.9005 43C29.8981 45.121 29.0544 47.1544 27.5547 48.6542C26.055 50.1539 24.0215 50.9976 21.9006 51Z" fill="#897AE3"/>
<path d="M21.9006 39C21.1094 39 20.3361 39.2346 19.6783 39.6741C19.0205 40.1136 18.5078 40.7383 18.205 41.4692C17.9023 42.2001 17.823 43.0044 17.9774 43.7803C18.1317 44.5563 18.5127 45.269 19.0721 45.8284C19.6315 46.3878 20.3442 46.7688 21.1201 46.9231C21.8961 47.0775 22.7003 46.9983 23.4312 46.6955C24.1621 46.3928 24.7869 45.8801 25.2264 45.2223C25.6659 44.5645 25.9005 43.7911 25.9005 43C25.8993 41.9395 25.4775 40.9228 24.7276 40.1729C23.9778 39.423 22.9611 39.0012 21.9006 39ZM19.9006 43C19.9006 42.6044 20.0179 42.2178 20.2377 41.8889C20.4575 41.56 20.7698 41.3036 21.1353 41.1522C21.5008 41.0009 21.9029 40.9613 22.2909 41.0384C22.6788 41.1156 23.0352 41.3061 23.3149 41.5858C23.5946 41.8655 23.7851 42.2219 23.8622 42.6099C23.9394 42.9978 23.8998 43.4 23.7484 43.7654C23.597 44.1309 23.3406 44.4432 23.0117 44.663C22.6828 44.8827 22.2961 45 21.9006 45C21.3703 44.9995 20.8619 44.7886 20.487 44.4136C20.112 44.0386 19.9012 43.5303 19.9006 43ZM40.9002 51C40.7024 51 40.5091 51.0586 40.3446 51.1685C40.1802 51.2784 40.052 51.4346 39.9763 51.6173C39.9006 51.8 39.8808 52.0011 39.9194 52.1951C39.9579 52.389 40.0532 52.5672 40.193 52.7071C40.3329 52.8469 40.5111 52.9422 40.705 52.9808C40.899 53.0194 41.1001 52.9996 41.2828 52.9239C41.4656 52.8482 41.6217 52.72 41.7316 52.5556C41.8415 52.3911 41.9002 52.1978 41.9002 52C41.9002 51.7348 41.7948 51.4805 41.6073 51.2929C41.4198 51.1054 41.1654 51 40.9002 51Z" fill="#897AE3"/>
<path d="M57.396 42.3369C57.1776 42.009 56.8967 41.7273 56.5694 41.508C56.2421 41.2887 55.8748 41.136 55.4884 41.0588C55.1021 40.9815 54.7043 40.9811 54.3178 41.0577C53.9313 41.1342 53.5637 41.2862 53.236 41.5049L47.253 45.4931L44.9002 36.8658V34C44.899 32.9395 44.4772 31.9228 43.7273 31.1729C42.9774 30.4231 41.9608 30.0012 40.9003 30H39.9003V23C39.8994 22.2046 39.5831 21.4421 39.0207 20.8796C38.4583 20.3172 37.6957 20.0009 36.9003 20H21.1585L18.8314 9.35889C18.6823 8.69184 18.3112 8.09515 17.7788 7.66652C17.2464 7.23789 16.5843 7.00272 15.9008 6.99951H10.9009C10.1052 6.99951 9.34217 7.31558 8.77956 7.87819C8.21695 8.4408 7.90088 9.20386 7.90088 9.99951C7.90088 10.7952 8.21695 11.5582 8.77956 12.1208C9.34217 12.6834 10.1052 12.9995 10.9009 12.9995H13.4863L17.17 29.8403C14.759 30.7078 12.6324 32.2206 11.0222 34.2139C9.41208 36.2072 8.38015 38.6043 8.03898 41.1439C7.69781 43.6834 8.06051 46.2679 9.08752 48.6154C10.1145 50.963 11.7664 52.9835 13.8631 54.4565C15.9597 55.9296 18.4205 56.7987 20.9772 56.969C23.5339 57.1393 26.0883 56.6044 28.3618 55.4224C30.6353 54.2405 32.5406 52.457 33.87 50.2665C35.1993 48.0759 35.9017 45.5624 35.9004 43C35.9004 42.6625 35.8734 42.3317 35.8497 42H38.9003C39.2418 41.9966 39.5801 41.9343 39.9003 41.8157V47.1011C38.6862 47.3489 37.6075 48.0386 36.8731 49.0366C36.1388 50.0346 35.8011 51.2697 35.9256 52.5025C36.0502 53.7353 36.628 54.8779 37.5471 55.7089C38.4663 56.5398 39.6612 56.9999 40.9002 56.9999C42.1393 56.9999 43.3342 56.5398 44.2533 55.7089C45.1725 54.8779 45.7503 53.7353 45.8748 52.5025C45.9994 51.2697 45.6617 50.0346 44.9274 49.0366C44.193 48.0386 43.1142 47.3489 41.9002 47.1011V38H43.1363L45.9185 48.2017C45.9523 48.7258 46.1235 49.2318 46.4149 49.6688C46.7063 50.1058 47.1076 50.4582 47.5786 50.6908C48.0495 50.9234 48.5733 51.0278 49.0974 50.9937C49.6215 50.9595 50.1274 50.7879 50.5641 50.4961L56.5639 46.4966C56.8918 46.2781 57.1733 45.9973 57.3926 45.67C57.6118 45.3427 57.7644 44.9754 57.8417 44.5891C57.919 44.2028 57.9194 43.8051 57.8429 43.4187C57.7664 43.0322 57.6146 42.6646 57.396 42.3369ZM55.4547 44.8325L49.4543 48.8325C49.2317 48.973 48.9637 49.0225 48.7056 48.9708C48.4476 48.9191 48.2193 48.7701 48.0681 48.5547C47.921 48.3341 47.8676 48.0641 47.9196 47.8041C47.9716 47.5442 48.1248 47.3155 48.3454 47.1685L54.3462 43.1685C54.4554 43.0956 54.5779 43.045 54.7067 43.0195C54.8355 42.994 54.968 42.9942 55.0967 43.02C55.2254 43.0458 55.3478 43.0968 55.4568 43.1699C55.5658 43.243 55.6593 43.337 55.732 43.4463C55.8787 43.667 55.9319 43.9369 55.8799 44.1967C55.8279 44.4566 55.675 44.6852 55.4547 44.8325ZM39.9003 39C39.8999 39.2651 39.7945 39.5192 39.607 39.7067C39.4196 39.8942 39.1654 39.9996 38.9003 40H35.5685C35.4168 39.319 35.2139 38.6504 34.9614 38H39.9003V39ZM33.9004 43C33.9003 45.3733 33.1965 47.6933 31.8779 49.6666C30.5594 51.6399 28.6852 53.1779 26.4926 54.0861C24.2999 54.9943 21.8872 55.2319 19.5595 54.7689C17.2318 54.3058 15.0936 53.1629 13.4155 51.4847C11.7373 49.8065 10.5945 47.6684 10.1315 45.3407C9.66849 43.013 9.90614 40.6002 10.8144 38.4076C11.7226 36.2149 13.2606 34.3409 15.234 33.0223C17.2073 31.7038 19.5273 31 21.9006 31C25.0821 31.0037 28.1322 32.2691 30.3818 34.5188C32.6314 36.7684 33.8968 39.8186 33.9004 43ZM14.2909 10.9995H10.9009C10.6357 10.9995 10.3813 10.8942 10.1938 10.7066C10.0062 10.5191 9.90088 10.2647 9.90088 9.99951C9.90088 9.7343 10.0062 9.47994 10.1938 9.29241C10.3813 9.10487 10.6357 8.99951 10.9009 8.99951H15.9008C16.1286 9.00059 16.3493 9.07901 16.5267 9.22192C16.7041 9.36484 16.8277 9.56377 16.8773 9.78613L19.3768 21.2139C19.4256 21.4367 19.5491 21.6361 19.7268 21.779C19.9045 21.922 20.1257 22 20.3538 22H36.9003C37.1655 22 37.4199 22.1054 37.6074 22.2929C37.795 22.4804 37.9003 22.7348 37.9003 23C37.9003 23.2652 37.795 23.5196 37.6074 23.7071C37.4199 23.8946 37.1655 24 36.9003 24H21.2288C21.0794 24.0001 20.9318 24.0336 20.797 24.0982C20.6622 24.1628 20.5436 24.2568 20.4499 24.3732C20.3562 24.4896 20.2897 24.6256 20.2554 24.7711C20.2212 24.9165 20.2199 25.0678 20.2518 25.2139L21.089 29.0411C20.4196 29.0739 19.7534 29.1548 19.0956 29.283L15.268 11.7856C15.2192 11.5629 15.0956 11.3635 14.9179 11.2205C14.7402 11.0775 14.519 10.9995 14.2909 10.9995ZM27.0668 30C25.8109 29.4979 24.4883 29.1822 23.141 29.0628L22.4709 26H36.9003C37.2418 25.9966 37.5801 25.9342 37.9003 25.8157V30H27.0668ZM34.0062 36C33.1117 34.459 31.9328 33.1016 30.5323 32H40.9003C41.4305 32.0005 41.9389 32.2114 42.3139 32.5864C42.6888 32.9613 42.8997 33.4697 42.9002 34V36H34.0062ZM40.9002 55C40.3069 55 39.7269 54.8241 39.2335 54.4944C38.7401 54.1648 38.3556 53.6963 38.1285 53.1481C37.9015 52.5999 37.8421 51.9967 37.9578 51.4148C38.0736 50.8328 38.3593 50.2983 38.7788 49.8787C39.1984 49.4591 39.7329 49.1734 40.3149 49.0576C40.8968 48.9419 41.5 49.0013 42.0482 49.2284C42.5964 49.4554 43.0649 49.8399 43.3946 50.3333C43.7242 50.8266 43.9002 51.4067 43.9002 52C43.8993 52.7954 43.583 53.5579 43.0206 54.1203C42.4582 54.6828 41.6956 54.9991 40.9002 55Z" fill="#897AE3"/>
</svg>
